<mxfile host="app.diagrams.net" modified="2022-07-11T11:17:11.245Z" agent="5.0 (Windows NT 10.0; Win64; x64) AppleWebKit/537.36 (KHTML, like Gecko) Chrome/103.0.0.0 Safari/537.36" etag="ZN3touHBQg4zXFYp5NWf" version="20.0.4" type="github">
  <diagram id="JQpSoryamnZWYD8ubrE5" name="Page-1">
    <mxGraphModel dx="2426" dy="1320" grid="0" gridSize="10" guides="1" tooltips="1" connect="1" arrows="1" fold="1" page="1" pageScale="2.8" pageWidth="827" pageHeight="600" math="0" shadow="0">
      <root>
        <mxCell id="0" />
        <mxCell id="1" parent="0" />
        <mxCell id="8JjJnCANUardXnhekm5R-16" value="" style="swimlane;startSize=0;" vertex="1" parent="1">
          <mxGeometry x="133" y="153" width="701" height="556" as="geometry">
            <mxRectangle x="18" y="27" width="50" height="44" as="alternateBounds" />
          </mxGeometry>
        </mxCell>
        <mxCell id="8JjJnCANUardXnhekm5R-1" value="Aircraft" style="swimlane;fontStyle=1;align=center;verticalAlign=top;childLayout=stackLayout;horizontal=1;startSize=26;horizontalStack=0;resizeParent=1;resizeParentMax=0;resizeLast=0;collapsible=1;marginBottom=0;" vertex="1" parent="8JjJnCANUardXnhekm5R-16">
          <mxGeometry x="258" y="24" width="160" height="144" as="geometry" />
        </mxCell>
        <mxCell id="8JjJnCANUardXnhekm5R-2" value="静态网格体组件&#xa;骨架网格体组件&#xa;箭头组件&#xa;生命值组件&#xa;死亡特效" style="text;strokeColor=none;fillColor=none;align=center;verticalAlign=top;spacingLeft=4;spacingRight=4;overflow=hidden;rotatable=0;points=[[0,0.5],[1,0.5]];portConstraint=eastwest;" vertex="1" parent="8JjJnCANUardXnhekm5R-1">
          <mxGeometry y="26" width="160" height="84" as="geometry" />
        </mxCell>
        <mxCell id="8JjJnCANUardXnhekm5R-3" value="" style="line;strokeWidth=1;fillColor=none;align=left;verticalAlign=middle;spacingTop=-1;spacingLeft=3;spacingRight=3;rotatable=0;labelPosition=right;points=[];portConstraint=eastwest;" vertex="1" parent="8JjJnCANUardXnhekm5R-1">
          <mxGeometry y="110" width="160" height="8" as="geometry" />
        </mxCell>
        <mxCell id="8JjJnCANUardXnhekm5R-4" value="+ method(type): type" style="text;strokeColor=none;fillColor=none;align=left;verticalAlign=top;spacingLeft=4;spacingRight=4;overflow=hidden;rotatable=0;points=[[0,0.5],[1,0.5]];portConstraint=eastwest;" vertex="1" parent="8JjJnCANUardXnhekm5R-1">
          <mxGeometry y="118" width="160" height="26" as="geometry" />
        </mxCell>
        <mxCell id="8JjJnCANUardXnhekm5R-5" value="PlayerAircraft" style="swimlane;fontStyle=1;align=center;verticalAlign=top;childLayout=stackLayout;horizontal=1;startSize=26;horizontalStack=0;resizeParent=1;resizeParentMax=0;resizeLast=0;collapsible=1;marginBottom=0;" vertex="1" parent="8JjJnCANUardXnhekm5R-16">
          <mxGeometry x="98" y="248" width="160" height="130" as="geometry" />
        </mxCell>
        <mxCell id="8JjJnCANUardXnhekm5R-6" value="弹簧臂组件&#xa;摄像机组件" style="text;strokeColor=none;fillColor=none;align=center;verticalAlign=top;spacingLeft=4;spacingRight=4;overflow=hidden;rotatable=0;points=[[0,0.5],[1,0.5]];portConstraint=eastwest;" vertex="1" parent="8JjJnCANUardXnhekm5R-5">
          <mxGeometry y="26" width="160" height="34" as="geometry" />
        </mxCell>
        <mxCell id="8JjJnCANUardXnhekm5R-7" value="" style="line;strokeWidth=1;fillColor=none;align=left;verticalAlign=middle;spacingTop=-1;spacingLeft=3;spacingRight=3;rotatable=0;labelPosition=right;points=[];portConstraint=eastwest;" vertex="1" parent="8JjJnCANUardXnhekm5R-5">
          <mxGeometry y="60" width="160" height="8" as="geometry" />
        </mxCell>
        <mxCell id="8JjJnCANUardXnhekm5R-8" value="绑定移动的输入&#xa;控制射击&#xa;判断与敌机的相撞" style="text;strokeColor=none;fillColor=none;align=center;verticalAlign=top;spacingLeft=4;spacingRight=4;overflow=hidden;rotatable=0;points=[[0,0.5],[1,0.5]];portConstraint=eastwest;" vertex="1" parent="8JjJnCANUardXnhekm5R-5">
          <mxGeometry y="68" width="160" height="62" as="geometry" />
        </mxCell>
        <mxCell id="8JjJnCANUardXnhekm5R-9" value="EnemyAircraft" style="swimlane;fontStyle=1;align=center;verticalAlign=top;childLayout=stackLayout;horizontal=1;startSize=26;horizontalStack=0;resizeParent=1;resizeParentMax=0;resizeLast=0;collapsible=1;marginBottom=0;" vertex="1" parent="8JjJnCANUardXnhekm5R-16">
          <mxGeometry x="408" y="258" width="160" height="94" as="geometry" />
        </mxCell>
        <mxCell id="8JjJnCANUardXnhekm5R-10" value="添加强制移动组件&#xa;DefaultScore变量" style="text;strokeColor=none;fillColor=none;align=center;verticalAlign=top;spacingLeft=4;spacingRight=4;overflow=hidden;rotatable=0;points=[[0,0.5],[1,0.5]];portConstraint=eastwest;" vertex="1" parent="8JjJnCANUardXnhekm5R-9">
          <mxGeometry y="26" width="160" height="34" as="geometry" />
        </mxCell>
        <mxCell id="8JjJnCANUardXnhekm5R-11" value="" style="line;strokeWidth=1;fillColor=none;align=left;verticalAlign=middle;spacingTop=-1;spacingLeft=3;spacingRight=3;rotatable=0;labelPosition=right;points=[];portConstraint=eastwest;" vertex="1" parent="8JjJnCANUardXnhekm5R-9">
          <mxGeometry y="60" width="160" height="8" as="geometry" />
        </mxCell>
        <mxCell id="8JjJnCANUardXnhekm5R-12" value="被击杀时向游戏模式加分" style="text;strokeColor=none;fillColor=none;align=center;verticalAlign=top;spacingLeft=4;spacingRight=4;overflow=hidden;rotatable=0;points=[[0,0.5],[1,0.5]];portConstraint=eastwest;fontStyle=0" vertex="1" parent="8JjJnCANUardXnhekm5R-9">
          <mxGeometry y="68" width="160" height="26" as="geometry" />
        </mxCell>
        <mxCell id="8JjJnCANUardXnhekm5R-13" value="&lt;span style=&quot;color: rgb(50, 50, 50); font-family: 微软雅黑; font-size: 18px; background-color: rgba(255, 255, 255, 0.01);&quot;&gt;BP_PlayerAircraft&lt;/span&gt;" style="rounded=0;whiteSpace=wrap;html=1;" vertex="1" parent="8JjJnCANUardXnhekm5R-16">
          <mxGeometry x="53" y="448" width="170" height="50" as="geometry" />
        </mxCell>
        <mxCell id="8JjJnCANUardXnhekm5R-14" value="&lt;span style=&quot;color: rgb(50, 50, 50); font-family: 微软雅黑; font-size: 18px; background-color: rgba(255, 255, 255, 0.01);&quot;&gt;BP_EnemySmall&lt;/span&gt;" style="rounded=0;whiteSpace=wrap;html=1;" vertex="1" parent="8JjJnCANUardXnhekm5R-16">
          <mxGeometry x="288" y="448" width="170" height="50" as="geometry" />
        </mxCell>
        <mxCell id="8JjJnCANUardXnhekm5R-15" value="&lt;span style=&quot;color: rgb(50, 50, 50); font-family: 微软雅黑; font-size: 18px; background-color: rgba(255, 255, 255, 0.01);&quot;&gt;BP_EnemyMiddle&lt;/span&gt;" style="rounded=0;whiteSpace=wrap;html=1;" vertex="1" parent="8JjJnCANUardXnhekm5R-16">
          <mxGeometry x="508" y="448" width="170" height="50" as="geometry" />
        </mxCell>
        <mxCell id="8JjJnCANUardXnhekm5R-18" value="&lt;font style=&quot;font-size: 29px;&quot;&gt;飞机&lt;/font&gt;" style="rounded=0;whiteSpace=wrap;html=1;" vertex="1" parent="8JjJnCANUardXnhekm5R-16">
          <mxGeometry x="19" y="16" width="120" height="60" as="geometry" />
        </mxCell>
        <mxCell id="8JjJnCANUardXnhekm5R-31" value="" style="endArrow=classic;html=1;rounded=0;fontSize=29;entryX=0.5;entryY=0;entryDx=0;entryDy=0;exitX=0.512;exitY=1.066;exitDx=0;exitDy=0;exitPerimeter=0;" edge="1" parent="8JjJnCANUardXnhekm5R-16" source="8JjJnCANUardXnhekm5R-4" target="8JjJnCANUardXnhekm5R-9">
          <mxGeometry width="50" height="50" relative="1" as="geometry">
            <mxPoint x="348" y="171" as="sourcePoint" />
            <mxPoint x="423" y="189" as="targetPoint" />
          </mxGeometry>
        </mxCell>
        <mxCell id="8JjJnCANUardXnhekm5R-50" value="" style="endArrow=classic;html=1;rounded=0;fontSize=29;entryX=0.5;entryY=0;entryDx=0;entryDy=0;exitX=0.506;exitY=1.139;exitDx=0;exitDy=0;exitPerimeter=0;" edge="1" parent="8JjJnCANUardXnhekm5R-16" source="8JjJnCANUardXnhekm5R-4" target="8JjJnCANUardXnhekm5R-5">
          <mxGeometry width="50" height="50" relative="1" as="geometry">
            <mxPoint x="349.9200000000001" y="179.7159999999999" as="sourcePoint" />
            <mxPoint x="498" y="268" as="targetPoint" />
          </mxGeometry>
        </mxCell>
        <mxCell id="8JjJnCANUardXnhekm5R-52" value="" style="endArrow=classic;html=1;rounded=0;fontSize=29;entryX=0.5;entryY=0;entryDx=0;entryDy=0;exitX=0.506;exitY=1.139;exitDx=0;exitDy=0;exitPerimeter=0;" edge="1" parent="8JjJnCANUardXnhekm5R-16" target="8JjJnCANUardXnhekm5R-14">
          <mxGeometry width="50" height="50" relative="1" as="geometry">
            <mxPoint x="483.9599999999996" y="352.004" as="sourcePoint" />
            <mxPoint x="323" y="428.39" as="targetPoint" />
          </mxGeometry>
        </mxCell>
        <mxCell id="8JjJnCANUardXnhekm5R-51" value="" style="endArrow=classic;html=1;rounded=0;fontSize=29;exitX=0.506;exitY=1.139;exitDx=0;exitDy=0;exitPerimeter=0;" edge="1" parent="8JjJnCANUardXnhekm5R-16" target="8JjJnCANUardXnhekm5R-13">
          <mxGeometry width="50" height="50" relative="1" as="geometry">
            <mxPoint x="176.95999999999958" y="378.004" as="sourcePoint" />
            <mxPoint x="16" y="454.39" as="targetPoint" />
          </mxGeometry>
        </mxCell>
        <mxCell id="8JjJnCANUardXnhekm5R-74" value="" style="endArrow=classic;html=1;rounded=0;fontSize=29;entryX=0.5;entryY=0;entryDx=0;entryDy=0;exitX=0.485;exitY=1.095;exitDx=0;exitDy=0;exitPerimeter=0;" edge="1" parent="8JjJnCANUardXnhekm5R-16" source="8JjJnCANUardXnhekm5R-12" target="8JjJnCANUardXnhekm5R-15">
          <mxGeometry width="50" height="50" relative="1" as="geometry">
            <mxPoint x="493.9599999999996" y="362.0039999999999" as="sourcePoint" />
            <mxPoint x="383" y="458" as="targetPoint" />
          </mxGeometry>
        </mxCell>
        <mxCell id="8JjJnCANUardXnhekm5R-81" value="" style="swimlane;startSize=0;labelBackgroundColor=#FF7D19;fontSize=11;" vertex="1" parent="1">
          <mxGeometry x="174" y="771" width="599" height="437" as="geometry" />
        </mxCell>
        <mxCell id="8JjJnCANUardXnhekm5R-19" value="Bullet" style="swimlane;fontStyle=1;align=center;verticalAlign=top;childLayout=stackLayout;horizontal=1;startSize=26;horizontalStack=0;resizeParent=1;resizeParentMax=0;resizeLast=0;collapsible=1;marginBottom=0;" vertex="1" parent="8JjJnCANUardXnhekm5R-81">
          <mxGeometry x="210" y="64" width="166" height="151" as="geometry" />
        </mxCell>
        <mxCell id="8JjJnCANUardXnhekm5R-20" value="球形组件&#xa;静态网格体组件&#xa;发射物组件&#xa;伤害值" style="text;strokeColor=none;fillColor=none;align=center;verticalAlign=top;spacingLeft=4;spacingRight=4;overflow=hidden;rotatable=0;points=[[0,0.5],[1,0.5]];portConstraint=eastwest;" vertex="1" parent="8JjJnCANUardXnhekm5R-19">
          <mxGeometry y="26" width="166" height="71" as="geometry" />
        </mxCell>
        <mxCell id="8JjJnCANUardXnhekm5R-21" value="" style="line;strokeWidth=1;fillColor=none;align=left;verticalAlign=middle;spacingTop=-1;spacingLeft=3;spacingRight=3;rotatable=0;labelPosition=right;points=[];portConstraint=eastwest;" vertex="1" parent="8JjJnCANUardXnhekm5R-19">
          <mxGeometry y="97" width="166" height="8" as="geometry" />
        </mxCell>
        <mxCell id="8JjJnCANUardXnhekm5R-22" value="判断命中并产生命中特效&#xa;设置生命周期防止一直存在" style="text;strokeColor=none;fillColor=none;align=left;verticalAlign=top;spacingLeft=4;spacingRight=4;overflow=hidden;rotatable=0;points=[[0,0.5],[1,0.5]];portConstraint=eastwest;" vertex="1" parent="8JjJnCANUardXnhekm5R-19">
          <mxGeometry y="105" width="166" height="46" as="geometry" />
        </mxCell>
        <mxCell id="8JjJnCANUardXnhekm5R-75" value="&lt;span style=&quot;color: rgb(50, 50, 50); font-family: 微软雅黑; font-size: 18px; background-color: rgba(255, 255, 255, 0.01);&quot;&gt;BP_&lt;/span&gt;&lt;span style=&quot;color: rgb(50, 50, 50); font-family: 微软雅黑; font-size: 18px; background-color: rgba(255, 255, 255, 0.01);&quot;&gt;BulletBase&lt;/span&gt;" style="rounded=0;whiteSpace=wrap;html=1;" vertex="1" parent="8JjJnCANUardXnhekm5R-81">
          <mxGeometry x="31" y="339" width="170" height="50" as="geometry" />
        </mxCell>
        <mxCell id="8JjJnCANUardXnhekm5R-76" value="&lt;span style=&quot;color: rgb(50, 50, 50); font-family: 微软雅黑; font-size: 18px; background-color: rgba(255, 255, 255, 0.01);&quot;&gt;BP_BulletPlus&lt;/span&gt;" style="rounded=0;whiteSpace=wrap;html=1;" vertex="1" parent="8JjJnCANUardXnhekm5R-81">
          <mxGeometry x="393" y="339" width="170" height="50" as="geometry" />
        </mxCell>
        <mxCell id="8JjJnCANUardXnhekm5R-77" value="" style="endArrow=classic;html=1;rounded=0;fontSize=29;exitX=0.488;exitY=1.05;exitDx=0;exitDy=0;exitPerimeter=0;entryX=0.5;entryY=0;entryDx=0;entryDy=0;" edge="1" parent="8JjJnCANUardXnhekm5R-81" source="8JjJnCANUardXnhekm5R-22" target="8JjJnCANUardXnhekm5R-75">
          <mxGeometry width="50" height="50" relative="1" as="geometry">
            <mxPoint x="254.95999999999958" y="225.0039999999999" as="sourcePoint" />
            <mxPoint x="144" y="324" as="targetPoint" />
          </mxGeometry>
        </mxCell>
        <mxCell id="8JjJnCANUardXnhekm5R-78" value="" style="endArrow=classic;html=1;rounded=0;fontSize=29;entryX=0.5;entryY=0;entryDx=0;entryDy=0;exitX=0.511;exitY=1.008;exitDx=0;exitDy=0;exitPerimeter=0;" edge="1" parent="8JjJnCANUardXnhekm5R-81" source="8JjJnCANUardXnhekm5R-22" target="8JjJnCANUardXnhekm5R-76">
          <mxGeometry width="50" height="50" relative="1" as="geometry">
            <mxPoint x="318.9599999999996" y="230.0039999999999" as="sourcePoint" />
            <mxPoint x="208" y="326" as="targetPoint" />
          </mxGeometry>
        </mxCell>
        <mxCell id="8JjJnCANUardXnhekm5R-79" value="" style="shape=flexArrow;endArrow=classic;startArrow=classic;html=1;rounded=0;fontSize=29;" edge="1" parent="8JjJnCANUardXnhekm5R-81">
          <mxGeometry width="100" height="100" relative="1" as="geometry">
            <mxPoint x="201" y="365.5" as="sourcePoint" />
            <mxPoint x="392" y="366" as="targetPoint" />
          </mxGeometry>
        </mxCell>
        <mxCell id="8JjJnCANUardXnhekm5R-80" value="&lt;font style=&quot;font-size: 11px; background-color: rgb(255, 125, 25);&quot;&gt;不同的伤害值与网格体组件&lt;/font&gt;" style="edgeLabel;html=1;align=center;verticalAlign=middle;resizable=0;points=[];fontSize=29;" vertex="1" connectable="0" parent="8JjJnCANUardXnhekm5R-79">
          <mxGeometry x="0.2992" y="-6" relative="1" as="geometry">
            <mxPoint x="-28" y="-29" as="offset" />
          </mxGeometry>
        </mxCell>
        <mxCell id="8JjJnCANUardXnhekm5R-82" value="&lt;font style=&quot;font-size: 29px;&quot;&gt;子弹&lt;/font&gt;" style="rounded=0;whiteSpace=wrap;html=1;" vertex="1" parent="8JjJnCANUardXnhekm5R-81">
          <mxGeometry x="19" y="18" width="120" height="60" as="geometry" />
        </mxCell>
        <mxCell id="8JjJnCANUardXnhekm5R-87" value="" style="swimlane;startSize=0;labelBackgroundColor=#FF7D19;fontSize=11;" vertex="1" parent="1">
          <mxGeometry x="309" y="1265" width="364" height="250" as="geometry" />
        </mxCell>
        <mxCell id="8JjJnCANUardXnhekm5R-83" value="PowerupActor" style="swimlane;fontStyle=1;align=center;verticalAlign=top;childLayout=stackLayout;horizontal=1;startSize=26;horizontalStack=0;resizeParent=1;resizeParentMax=0;resizeLast=0;collapsible=1;marginBottom=0;" vertex="1" parent="8JjJnCANUardXnhekm5R-87">
          <mxGeometry x="173" y="102" width="166" height="125" as="geometry" />
        </mxCell>
        <mxCell id="8JjJnCANUardXnhekm5R-84" value="球形组件&#xa;静态网格体组件&#xa;强制移动组件" style="text;strokeColor=none;fillColor=none;align=center;verticalAlign=top;spacingLeft=4;spacingRight=4;overflow=hidden;rotatable=0;points=[[0,0.5],[1,0.5]];portConstraint=eastwest;" vertex="1" parent="8JjJnCANUardXnhekm5R-83">
          <mxGeometry y="26" width="166" height="61" as="geometry" />
        </mxCell>
        <mxCell id="8JjJnCANUardXnhekm5R-85" value="" style="line;strokeWidth=1;fillColor=none;align=left;verticalAlign=middle;spacingTop=-1;spacingLeft=3;spacingRight=3;rotatable=0;labelPosition=right;points=[];portConstraint=eastwest;" vertex="1" parent="8JjJnCANUardXnhekm5R-83">
          <mxGeometry y="87" width="166" height="8" as="geometry" />
        </mxCell>
        <mxCell id="8JjJnCANUardXnhekm5R-86" value="判断命中玩家并施加buff" style="text;strokeColor=none;fillColor=none;align=left;verticalAlign=top;spacingLeft=4;spacingRight=4;overflow=hidden;rotatable=0;points=[[0,0.5],[1,0.5]];portConstraint=eastwest;" vertex="1" parent="8JjJnCANUardXnhekm5R-83">
          <mxGeometry y="95" width="166" height="30" as="geometry" />
        </mxCell>
        <mxCell id="8JjJnCANUardXnhekm5R-88" value="&lt;font style=&quot;font-size: 29px;&quot;&gt;增强道具&lt;/font&gt;" style="rounded=0;whiteSpace=wrap;html=1;" vertex="1" parent="8JjJnCANUardXnhekm5R-87">
          <mxGeometry x="21" y="25" width="135" height="58" as="geometry" />
        </mxCell>
        <mxCell id="8JjJnCANUardXnhekm5R-89" value="" style="swimlane;startSize=0;labelBackgroundColor=#FF7D19;fontSize=11;" vertex="1" parent="1">
          <mxGeometry x="1855" y="663" width="307" height="210" as="geometry" />
        </mxCell>
        <mxCell id="8JjJnCANUardXnhekm5R-90" value="Home" style="swimlane;fontStyle=1;align=center;verticalAlign=top;childLayout=stackLayout;horizontal=1;startSize=26;horizontalStack=0;resizeParent=1;resizeParentMax=0;resizeLast=0;collapsible=1;marginBottom=0;" vertex="1" parent="8JjJnCANUardXnhekm5R-89">
          <mxGeometry x="118" y="105" width="162" height="83" as="geometry" />
        </mxCell>
        <mxCell id="8JjJnCANUardXnhekm5R-92" value="" style="line;strokeWidth=1;fillColor=none;align=left;verticalAlign=middle;spacingTop=-1;spacingLeft=3;spacingRight=3;rotatable=0;labelPosition=right;points=[];portConstraint=eastwest;" vertex="1" parent="8JjJnCANUardXnhekm5R-90">
          <mxGeometry y="26" width="162" height="8" as="geometry" />
        </mxCell>
        <mxCell id="8JjJnCANUardXnhekm5R-93" value="判断是否与敌机发生重叠&#xa;若重叠则销毁并扣分" style="text;strokeColor=none;fillColor=none;align=left;verticalAlign=top;spacingLeft=4;spacingRight=4;overflow=hidden;rotatable=0;points=[[0,0.5],[1,0.5]];portConstraint=eastwest;" vertex="1" parent="8JjJnCANUardXnhekm5R-90">
          <mxGeometry y="34" width="162" height="49" as="geometry" />
        </mxCell>
        <mxCell id="8JjJnCANUardXnhekm5R-94" value="&lt;span style=&quot;font-size: 29px;&quot;&gt;防守区&lt;/span&gt;" style="rounded=0;whiteSpace=wrap;html=1;" vertex="1" parent="8JjJnCANUardXnhekm5R-89">
          <mxGeometry x="21" y="25" width="114" height="56" as="geometry" />
        </mxCell>
        <mxCell id="8JjJnCANUardXnhekm5R-95" value="" style="swimlane;startSize=0;labelBackgroundColor=#FF7D19;fontSize=11;" vertex="1" parent="1">
          <mxGeometry x="1104" y="198" width="644" height="455" as="geometry" />
        </mxCell>
        <mxCell id="8JjJnCANUardXnhekm5R-96" value="HealthComponent" style="swimlane;fontStyle=1;align=center;verticalAlign=top;childLayout=stackLayout;horizontal=1;startSize=26;horizontalStack=0;resizeParent=1;resizeParentMax=0;resizeLast=0;collapsible=1;marginBottom=0;" vertex="1" parent="8JjJnCANUardXnhekm5R-95">
          <mxGeometry x="165" y="65" width="182" height="153" as="geometry" />
        </mxCell>
        <mxCell id="8JjJnCANUardXnhekm5R-97" value="生命值&#xa;是否死亡" style="text;strokeColor=none;fillColor=none;align=center;verticalAlign=top;spacingLeft=4;spacingRight=4;overflow=hidden;rotatable=0;points=[[0,0.5],[1,0.5]];portConstraint=eastwest;" vertex="1" parent="8JjJnCANUardXnhekm5R-96">
          <mxGeometry y="26" width="182" height="44" as="geometry" />
        </mxCell>
        <mxCell id="8JjJnCANUardXnhekm5R-98" value="" style="line;strokeWidth=1;fillColor=none;align=left;verticalAlign=middle;spacingTop=-1;spacingLeft=3;spacingRight=3;rotatable=0;labelPosition=right;points=[];portConstraint=eastwest;" vertex="1" parent="8JjJnCANUardXnhekm5R-96">
          <mxGeometry y="70" width="182" height="8" as="geometry" />
        </mxCell>
        <mxCell id="8JjJnCANUardXnhekm5R-99" value="添加了受伤时的委托&#xa;OnHealthChanged；&#xa;添加此组件的类只需要注册&#xa;OnHealthChanged的函数即可" style="text;strokeColor=none;fillColor=none;align=left;verticalAlign=top;spacingLeft=4;spacingRight=4;overflow=hidden;rotatable=0;points=[[0,0.5],[1,0.5]];portConstraint=eastwest;" vertex="1" parent="8JjJnCANUardXnhekm5R-96">
          <mxGeometry y="78" width="182" height="75" as="geometry" />
        </mxCell>
        <mxCell id="8JjJnCANUardXnhekm5R-100" value="&lt;div class=&quot;mind-clipboard&quot;&gt;&lt;div&gt;还可以将敌我的判断封装在这个组件里；&lt;/div&gt;&lt;div&gt;从别的教程里套过来的，那里还用这个做了生命值的网络同步&lt;/div&gt;&lt;/div&gt;" style="rounded=0;whiteSpace=wrap;html=1;align=left;spacingLeft=5;spacingRight=4;" vertex="1" parent="8JjJnCANUardXnhekm5R-95">
          <mxGeometry x="399" y="145" width="231" height="65" as="geometry" />
        </mxCell>
        <mxCell id="8JjJnCANUardXnhekm5R-106" value="&lt;font style=&quot;font-size: 29px;&quot;&gt;组件&lt;/font&gt;" style="rounded=0;whiteSpace=wrap;html=1;" vertex="1" parent="8JjJnCANUardXnhekm5R-95">
          <mxGeometry x="19" y="18" width="120" height="60" as="geometry" />
        </mxCell>
        <mxCell id="8JjJnCANUardXnhekm5R-108" value="ForceMoveComponent" style="swimlane;fontStyle=1;align=center;verticalAlign=top;childLayout=stackLayout;horizontal=1;startSize=26;horizontalStack=0;resizeParent=1;resizeParentMax=0;resizeLast=0;collapsible=1;marginBottom=0;" vertex="1" parent="8JjJnCANUardXnhekm5R-95">
          <mxGeometry x="165" y="287" width="182" height="123" as="geometry" />
        </mxCell>
        <mxCell id="8JjJnCANUardXnhekm5R-109" value="速度大小&#xa;方向" style="text;strokeColor=none;fillColor=none;align=center;verticalAlign=top;spacingLeft=4;spacingRight=4;overflow=hidden;rotatable=0;points=[[0,0.5],[1,0.5]];portConstraint=eastwest;" vertex="1" parent="8JjJnCANUardXnhekm5R-108">
          <mxGeometry y="26" width="182" height="44" as="geometry" />
        </mxCell>
        <mxCell id="8JjJnCANUardXnhekm5R-110" value="" style="line;strokeWidth=1;fillColor=none;align=left;verticalAlign=middle;spacingTop=-1;spacingLeft=3;spacingRight=3;rotatable=0;labelPosition=right;points=[];portConstraint=eastwest;" vertex="1" parent="8JjJnCANUardXnhekm5R-108">
          <mxGeometry y="70" width="182" height="8" as="geometry" />
        </mxCell>
        <mxCell id="8JjJnCANUardXnhekm5R-111" value="通过MoveUpdatedComponent&#xa;更新Owner位置" style="text;strokeColor=none;fillColor=none;align=left;verticalAlign=top;spacingLeft=4;spacingRight=4;overflow=hidden;rotatable=0;points=[[0,0.5],[1,0.5]];portConstraint=eastwest;" vertex="1" parent="8JjJnCANUardXnhekm5R-108">
          <mxGeometry y="78" width="182" height="45" as="geometry" />
        </mxCell>
        <mxCell id="8JjJnCANUardXnhekm5R-116" value="" style="shape=umlActor;verticalLabelPosition=bottom;verticalAlign=top;html=1;outlineConnect=0;labelBackgroundColor=#FF7D19;fontSize=11;" vertex="1" parent="8JjJnCANUardXnhekm5R-95">
          <mxGeometry x="358" y="150" width="30" height="60" as="geometry" />
        </mxCell>
        <mxCell id="8JjJnCANUardXnhekm5R-107" style="edgeStyle=orthogonalEdgeStyle;rounded=0;orthogonalLoop=1;jettySize=auto;html=1;exitX=0;exitY=0.5;exitDx=0;exitDy=0;fontSize=11;fillColor=#f8cecc;strokeColor=#b85450;" edge="1" parent="1" source="8JjJnCANUardXnhekm5R-97" target="8JjJnCANUardXnhekm5R-2">
          <mxGeometry relative="1" as="geometry">
            <Array as="points">
              <mxPoint x="938" y="310" />
              <mxPoint x="938" y="245" />
            </Array>
          </mxGeometry>
        </mxCell>
        <mxCell id="8JjJnCANUardXnhekm5R-114" style="edgeStyle=orthogonalEdgeStyle;rounded=0;orthogonalLoop=1;jettySize=auto;html=1;exitX=0;exitY=0.5;exitDx=0;exitDy=0;entryX=1;entryY=0.5;entryDx=0;entryDy=0;fontSize=11;fillColor=#d5e8d4;strokeColor=#82b366;" edge="1" parent="1" source="8JjJnCANUardXnhekm5R-109" target="8JjJnCANUardXnhekm5R-10">
          <mxGeometry relative="1" as="geometry">
            <Array as="points">
              <mxPoint x="1269" y="532" />
              <mxPoint x="960" y="532" />
              <mxPoint x="960" y="454" />
            </Array>
          </mxGeometry>
        </mxCell>
        <mxCell id="8JjJnCANUardXnhekm5R-115" style="edgeStyle=orthogonalEdgeStyle;rounded=0;orthogonalLoop=1;jettySize=auto;html=1;exitX=0;exitY=0.5;exitDx=0;exitDy=0;entryX=1;entryY=0.5;entryDx=0;entryDy=0;fontSize=11;fillColor=#d5e8d4;strokeColor=#82b366;" edge="1" parent="1" source="8JjJnCANUardXnhekm5R-109" target="8JjJnCANUardXnhekm5R-84">
          <mxGeometry relative="1" as="geometry" />
        </mxCell>
        <mxCell id="8JjJnCANUardXnhekm5R-117" value="" style="swimlane;startSize=0;labelBackgroundColor=#FF7D19;fontSize=11;" vertex="1" parent="1">
          <mxGeometry x="1103" y="712" width="576" height="375" as="geometry" />
        </mxCell>
        <mxCell id="8JjJnCANUardXnhekm5R-118" value="WarGameMode" style="swimlane;fontStyle=1;align=center;verticalAlign=top;childLayout=stackLayout;horizontal=1;startSize=26;horizontalStack=0;resizeParent=1;resizeParentMax=0;resizeLast=0;collapsible=1;marginBottom=0;" vertex="1" parent="8JjJnCANUardXnhekm5R-117">
          <mxGeometry x="173" y="74" width="291" height="153" as="geometry" />
        </mxCell>
        <mxCell id="8JjJnCANUardXnhekm5R-119" value="储存玩家得分，通过AddScore函数来改变" style="text;strokeColor=none;fillColor=none;align=center;verticalAlign=top;spacingLeft=4;spacingRight=4;overflow=hidden;rotatable=0;points=[[0,0.5],[1,0.5]];portConstraint=eastwest;" vertex="1" parent="8JjJnCANUardXnhekm5R-118">
          <mxGeometry y="26" width="291" height="29" as="geometry" />
        </mxCell>
        <mxCell id="8JjJnCANUardXnhekm5R-120" value="" style="line;strokeWidth=1;fillColor=none;align=left;verticalAlign=middle;spacingTop=-1;spacingLeft=3;spacingRight=3;rotatable=0;labelPosition=right;points=[];portConstraint=eastwest;" vertex="1" parent="8JjJnCANUardXnhekm5R-118">
          <mxGeometry y="55" width="291" height="8" as="geometry" />
        </mxCell>
        <mxCell id="8JjJnCANUardXnhekm5R-121" value="控制敌机与道具生成的部分&#xa;具体规则：&#xa;道具生成规则：10秒一个敌机具体规则：按波来生成，每一波敌机&#xa;（种类随机）数量逐渐增加，在敌机全部消失&#xa;（被击杀或撞到防守区死亡）开始下一波" style="text;strokeColor=none;fillColor=none;align=left;verticalAlign=top;spacingLeft=4;spacingRight=4;overflow=hidden;rotatable=0;points=[[0,0.5],[1,0.5]];portConstraint=eastwest;" vertex="1" parent="8JjJnCANUardXnhekm5R-118">
          <mxGeometry y="63" width="291" height="90" as="geometry" />
        </mxCell>
        <mxCell id="8JjJnCANUardXnhekm5R-122" value="&lt;font style=&quot;font-size: 29px;&quot;&gt;游戏模式&lt;/font&gt;" style="rounded=0;whiteSpace=wrap;html=1;" vertex="1" parent="8JjJnCANUardXnhekm5R-117">
          <mxGeometry x="21" y="25" width="135" height="58" as="geometry" />
        </mxCell>
        <mxCell id="8JjJnCANUardXnhekm5R-152" value="" style="rounded=0;whiteSpace=wrap;html=1;labelBackgroundColor=#FFFFFF;fontSize=11;fontColor=#000000;" vertex="1" parent="8JjJnCANUardXnhekm5R-117">
          <mxGeometry x="173" y="228" width="292" height="71" as="geometry" />
        </mxCell>
        <mxCell id="8JjJnCANUardXnhekm5R-151" value="重玩：&#xa;函数StartGame&#xa;清除场景内所有物体与玩家数据&#xa;并控制生成玩家、敌机、道具" style="text;strokeColor=none;fillColor=none;align=left;verticalAlign=top;spacingLeft=4;spacingRight=4;overflow=hidden;rotatable=0;points=[[0,0.5],[1,0.5]];portConstraint=eastwest;" vertex="1" parent="8JjJnCANUardXnhekm5R-117">
          <mxGeometry x="173" y="227" width="291" height="72" as="geometry" />
        </mxCell>
        <mxCell id="8JjJnCANUardXnhekm5R-141" style="edgeStyle=orthogonalEdgeStyle;rounded=0;orthogonalLoop=1;jettySize=auto;html=1;exitX=1;exitY=0.5;exitDx=0;exitDy=0;fontSize=11;fontColor=#FF7D19;labelBackgroundColor=#FF7D19;labelBorderColor=#FF7D19;fillColor=#ffe6cc;strokeColor=#d79b00;" edge="1" parent="1" source="8JjJnCANUardXnhekm5R-12" target="8JjJnCANUardXnhekm5R-119">
          <mxGeometry relative="1" as="geometry">
            <Array as="points">
              <mxPoint x="877" y="492" />
              <mxPoint x="877" y="828" />
            </Array>
          </mxGeometry>
        </mxCell>
        <mxCell id="8JjJnCANUardXnhekm5R-143" style="edgeStyle=orthogonalEdgeStyle;rounded=0;orthogonalLoop=1;jettySize=auto;html=1;exitX=0;exitY=0.5;exitDx=0;exitDy=0;entryX=1;entryY=0.5;entryDx=0;entryDy=0;labelBackgroundColor=#FF7D19;labelBorderColor=#FF7D19;fontSize=11;fontColor=#FF7D19;fillColor=#ffe6cc;strokeColor=#d79b00;" edge="1" parent="1" source="8JjJnCANUardXnhekm5R-93" target="8JjJnCANUardXnhekm5R-119">
          <mxGeometry relative="1" as="geometry" />
        </mxCell>
        <mxCell id="8JjJnCANUardXnhekm5R-144" value="" style="swimlane;startSize=0;labelBackgroundColor=#FF7D19;fontSize=11;" vertex="1" parent="1">
          <mxGeometry x="1104" y="1148" width="370" height="225" as="geometry" />
        </mxCell>
        <mxCell id="8JjJnCANUardXnhekm5R-145" value="BP_MyPlayerController" style="swimlane;fontStyle=1;align=center;verticalAlign=top;childLayout=stackLayout;horizontal=1;startSize=26;horizontalStack=0;resizeParent=1;resizeParentMax=0;resizeLast=0;collapsible=1;marginBottom=0;" vertex="1" parent="8JjJnCANUardXnhekm5R-144">
          <mxGeometry x="196" y="94" width="151" height="114" as="geometry" />
        </mxCell>
        <mxCell id="8JjJnCANUardXnhekm5R-147" value="" style="line;strokeWidth=1;fillColor=none;align=left;verticalAlign=middle;spacingTop=-1;spacingLeft=3;spacingRight=3;rotatable=0;labelPosition=right;points=[];portConstraint=eastwest;" vertex="1" parent="8JjJnCANUardXnhekm5R-145">
          <mxGeometry y="26" width="151" height="8" as="geometry" />
        </mxCell>
        <mxCell id="8JjJnCANUardXnhekm5R-148" value="Bgm与各种UI的生成&#xa;暂停&#xa;重玩&#xa;结束的判定" style="text;strokeColor=none;fillColor=none;align=left;verticalAlign=top;spacingLeft=4;spacingRight=4;overflow=hidden;rotatable=0;points=[[0,0.5],[1,0.5]];portConstraint=eastwest;" vertex="1" parent="8JjJnCANUardXnhekm5R-145">
          <mxGeometry y="34" width="151" height="80" as="geometry" />
        </mxCell>
        <mxCell id="8JjJnCANUardXnhekm5R-149" value="&lt;font style=&quot;font-size: 29px;&quot;&gt;玩家控制器&lt;/font&gt;" style="rounded=0;whiteSpace=wrap;html=1;" vertex="1" parent="8JjJnCANUardXnhekm5R-144">
          <mxGeometry x="21" y="25" width="175" height="58" as="geometry" />
        </mxCell>
        <mxCell id="8JjJnCANUardXnhekm5R-153" style="edgeStyle=orthogonalEdgeStyle;rounded=0;orthogonalLoop=1;jettySize=auto;html=1;exitX=1;exitY=0.5;exitDx=0;exitDy=0;entryX=1;entryY=0.5;entryDx=0;entryDy=0;labelBackgroundColor=#FF7D19;labelBorderColor=#FF7D19;fontSize=11;fontColor=#000000;" edge="1" parent="1" source="8JjJnCANUardXnhekm5R-148" target="8JjJnCANUardXnhekm5R-151">
          <mxGeometry relative="1" as="geometry" />
        </mxCell>
        <mxCell id="8JjJnCANUardXnhekm5R-154" value="&lt;font style=&quot;font-size: 16px;&quot;&gt;重玩：调用函数&lt;/font&gt;" style="text;html=1;align=center;verticalAlign=middle;resizable=0;points=[];autosize=1;strokeColor=none;fillColor=none;fontSize=11;fontColor=#000000;" vertex="1" parent="1">
          <mxGeometry x="1595" y="1214" width="130" height="31" as="geometry" />
        </mxCell>
        <mxCell id="8JjJnCANUardXnhekm5R-155" value="&lt;font style=&quot;font-size: 16px;&quot;&gt;附加&lt;/font&gt;" style="text;html=1;align=center;verticalAlign=middle;resizable=0;points=[];autosize=1;strokeColor=none;fillColor=none;fontSize=11;fontColor=#000000;" vertex="1" parent="1">
          <mxGeometry x="853" y="427" width="50" height="31" as="geometry" />
        </mxCell>
        <mxCell id="8JjJnCANUardXnhekm5R-156" value="&lt;font style=&quot;font-size: 16px;&quot;&gt;附加&lt;/font&gt;" style="text;html=1;align=center;verticalAlign=middle;resizable=0;points=[];autosize=1;strokeColor=none;fillColor=none;fontSize=11;fontColor=#000000;" vertex="1" parent="1">
          <mxGeometry x="807" y="1387" width="50" height="31" as="geometry" />
        </mxCell>
        <mxCell id="8JjJnCANUardXnhekm5R-157" value="&lt;font style=&quot;font-size: 16px;&quot;&gt;调用函数&lt;/font&gt;" style="text;html=1;align=center;verticalAlign=middle;resizable=0;points=[];autosize=1;strokeColor=none;fillColor=none;fontSize=11;fontColor=#000000;" vertex="1" parent="1">
          <mxGeometry x="1011" y="792" width="82" height="31" as="geometry" />
        </mxCell>
        <mxCell id="8JjJnCANUardXnhekm5R-158" value="&lt;font style=&quot;font-size: 16px;&quot;&gt;调用函数&lt;/font&gt;" style="text;html=1;align=center;verticalAlign=middle;resizable=0;points=[];autosize=1;strokeColor=none;fillColor=none;fontSize=11;fontColor=#000000;" vertex="1" parent="1">
          <mxGeometry x="1689" y="792" width="82" height="31" as="geometry" />
        </mxCell>
        <mxCell id="8JjJnCANUardXnhekm5R-159" value="&lt;font style=&quot;font-size: 16px;&quot;&gt;附加&lt;/font&gt;" style="text;html=1;align=center;verticalAlign=middle;resizable=0;points=[];autosize=1;strokeColor=none;fillColor=none;fontSize=11;fontColor=#000000;" vertex="1" parent="1">
          <mxGeometry x="857" y="206" width="50" height="31" as="geometry" />
        </mxCell>
      </root>
    </mxGraphModel>
  </diagram>
</mxfile>
